<?xml version="1.0" encoding="utf-8"?>
<!-- Generator: Adobe Illustrator 27.5.0, SVG Export Plug-In . SVG Version: 6.00 Build 0)  -->
<svg version="1.1" id="Capa_1" xmlns="http://www.w3.org/2000/svg" xmlns:xlink="http://www.w3.org/1999/xlink" x="0px" y="0px"
	 viewBox="0 0 2122 2122" style="enable-background:new 0 0 2122 2122;" xml:space="preserve">
<path style="fill:#2A2C35;" d="M1570.725,1786.338v-21.077c-8.348,9.705-13.426,22.303-13.426,36.109
	c0,29.159,22.523,53.009,51.114,55.224c-4.515-10.368-7.054-21.794-7.054-33.824c0-0.024,0.004-0.047,0.004-0.072
	C1584.025,1819.678,1570.725,1804.504,1570.725,1786.338z"/>
<path style="fill:#561F26;" d="M1570.725,1786.338c0,18.166,13.3,33.341,30.637,36.361c0.025-30.094,15.766-56.454,39.414-71.491
	v-9.179l-3.505-15.374h-66.546v8.493v30.113V1786.338z"/>
<polygon style="fill:#6D292F;" points="1625.305,1674.169 1558.761,1674.169 1570.725,1726.655 1637.271,1726.655 "/>
<path style="fill:#1D1E21;" d="M995.413,1801.37c0,25.782-17.625,47.391-41.465,53.596c4.081-9.932,6.366-20.792,6.366-32.195
	c0-0.94-0.11-1.851-0.141-2.784c-0.941-28.956-16.347-54.2-39.277-68.78v32.541c9.023,10.487,14.511,24.102,14.511,39.023
	c0,33.09-26.825,59.915-59.915,59.915c-33.09,0-59.915-26.825-59.915-59.915c0-14.919,5.487-28.534,14.509-39.021v-32.542
	c-23.667,15.049-39.418,41.439-39.418,71.563c0,46.847,37.977,84.823,84.823,84.823c24.871,0,47.169-10.77,62.684-27.822
	c0.603,0.014,1.189,0.091,1.794,0.091c43.351,0,78.492-35.142,78.492-78.492c0-27.876-14.574-52.297-36.475-66.222v30.113
	C990.335,1774.966,995.413,1787.565,995.413,1801.37z"/>
<path style="fill:#2A2C35;" d="M953.948,1854.966c23.841-6.205,41.465-27.813,41.465-53.596c0-13.806-5.078-26.404-13.426-36.109
	v21.077c0,14.93-8.991,27.837-21.815,33.649c0.031,0.932,0.141,1.844,0.141,2.784
	C960.313,1834.174,958.028,1845.034,953.948,1854.966z"/>
<path style="fill:#561F26;" d="M920.895,1742.029v9.178c22.93,14.579,38.335,39.824,39.277,68.78
	c12.823-5.812,21.815-18.719,21.815-33.649v-21.077v-30.113v-8.493h-57.585L920.895,1742.029z"/>
<polygon style="fill:#6D292F;" points="924.401,1726.655 981.987,1726.655 993.953,1674.169 936.367,1674.169 "/>
<path style="fill:#3E404C;" d="M880.972,1846.45H870.01c-21.959,0-39.925-17.966-39.925-39.924v-22.776
	c-9.022,10.488-14.509,24.102-14.509,39.021c0,33.09,26.825,59.915,59.915,59.915c33.09,0,59.915-26.825,59.915-59.915
	c0-14.92-5.487-28.535-14.511-39.023v22.778C920.895,1828.484,902.931,1846.45,880.972,1846.45z"/>
<path style="fill:#6D292F;" d="M830.086,1806.526c0,21.958,17.966,39.924,39.925,39.924h10.962
	c21.959,0,39.923-17.966,39.923-39.924v-22.778v-32.541v-9.178h-90.81v9.179v32.542V1806.526z"/>
<polygon style="fill:#8A333A;" points="924.401,1726.655 936.367,1674.169 814.614,1674.169 830.086,1742.029 920.895,1742.029 "/>
<path style="fill:#1D1E21;" d="M1746.097,1822.771c0,33.09-26.826,59.915-59.915,59.915c-33.09,0-59.915-26.825-59.915-59.915
	c0-14.919,5.488-28.534,14.509-39.021v-32.542c-23.647,15.037-39.388,41.397-39.414,71.491c0,0.024-0.004,0.047-0.004,0.072
	c0,12.03,2.539,23.456,7.054,33.824c-28.591-2.215-51.114-26.066-51.114-55.224c0-13.806,5.078-26.404,13.426-36.109v-30.113
	c-21.901,13.926-36.475,38.346-36.475,66.222c0,43.35,35.141,78.492,78.492,78.492c3.455,0,6.833-0.299,10.171-0.732
	c15.536,17.426,38.086,28.464,63.269,28.464c46.846,0,84.822-37.976,84.822-84.823c0-30.125-15.749-56.515-39.417-71.564v32.541
	C1740.609,1794.236,1746.097,1807.851,1746.097,1822.771z"/>
<path style="fill:#3E404C;" d="M1686.182,1882.686c33.089,0,59.915-26.825,59.915-59.915c0-14.92-5.487-28.535-14.51-39.022v22.777
	c0,21.958-17.966,39.924-39.923,39.924H1680.7c-21.957,0-39.923-17.966-39.923-39.924v-22.776
	c-9.021,10.488-14.509,24.102-14.509,39.021C1626.267,1855.86,1653.092,1882.686,1686.182,1882.686z"/>
<path style="fill:#6D292F;" d="M1640.776,1751.208v32.542v22.776c0,21.958,17.966,39.924,39.923,39.924h10.964
	c21.957,0,39.923-17.966,39.923-39.924v-22.777v-32.541v-9.178h-90.81V1751.208z"/>
<polygon style="fill:#8A333A;" points="1637.271,1726.655 1640.776,1742.029 1731.587,1742.029 1747.058,1674.169 
	1625.305,1674.169 "/>
<path style="fill:#8CA0B5;" d="M676.233,625.159l-29.526-153.103c-1.266-8.393-19.686-120.07-105.826-150.468L376.96,268.264
	l-7.863,25.551L532.298,346.9c71.971,25.402,87.854,128.291,88.003,129.313l0.046,0.312l28.664,148.633h-60.888l-40.733-166.542
	c-1.06-4.739-16.225-68.781-64.624-89.9c-35.47-15.478-86.667-30.496-124.229-40.573l-7.878,25.601
	c36.896,9.889,87.461,24.654,121.418,39.471c36.607,15.974,49.122,70.749,49.24,71.279l39.293,160.664h-0.41l139.268,675.074
	c9.153,44.365,51.536,76.396,99.884,76.396c1.885,0,3.781-0.048,5.682-0.147l36.939-1.915l-143.744,197.15
	c-15.334,18.934-18.406,44.321-7.994,66.393c10.49,22.243,32.286,36.06,56.878,36.06h67.503h121.753h57.586h564.808h66.545h121.752
	h85.707c9.736,0,17.628-7.892,17.628-17.628s-7.893-17.628-17.628-17.628H747.112c-10.97,0-20.313-5.923-24.992-15.845
	c-4.68-9.922-3.308-20.899,3.668-29.364l136.525-187.197l195.28-12.876c9.714-0.64,17.069-9.035,16.429-18.749
	c-0.318-4.827-2.559-9.068-5.917-12.039l734.07-38.057c51.794-2.686,92.989-40.84,95.824-88.751l7.644-129.138l0.608-0.015
	l-0.178-7.242l28.087-474.481H676.233z M1394.007,660.415l8.137,213.228h-132.196l-15.166-213.228H1394.007z M1258.966,1096.044
	l-114.309,2.808l-25.042-198.478h125.436L1258.966,1096.044z M1227.983,660.415l15.166,213.228h-126.907l-26.904-213.228H1227.983z
	 M799.446,900.375h138.508l34.937,202.697l-137.082,3.368L799.446,900.375z M808.783,1107.103l-39.42,0.969l-40.055-207.697h42.995
	L808.783,1107.103z M965.079,900.375h127.593l25.126,199.137l-117.896,2.896L965.079,900.375z M1062.396,660.415l26.904,213.228
	H960.471l-36.753-213.228H1062.396z M896.593,660.415l36.753,213.228H794.729l-37.628-213.228H896.593z M729.958,660.415
	l37.629,213.228h-43.432l-41.122-213.228H729.958z M603.467,660.415h52.342l41.122,213.228h-49.474L603.467,660.415z
	 M696.19,1109.869l-43.219-209.494h49.115l40.183,208.362L696.19,1109.869z M733.993,1293.108l-32.315-156.634l45.722-1.123
	l39.521,204.934C760.547,1335.821,739.014,1317.439,733.993,1293.108z M814.227,1340.703l-39.731-206.018l38.985-0.957
	l36.201,205.136L814.227,1340.703z M876.579,1337.469l-36.072-204.406l136.973-3.365l34.602,200.747L876.579,1337.469z
	 M1038.966,1329.051l-34.475-200.017l116.669-2.866l24.898,197.33L1038.966,1329.051z M1172.826,1322.111l-24.806-196.603
	l112.845-2.772l13.804,194.095L1172.826,1322.111z M1271.849,900.375h131.315l7.324,191.947l-124.77,3.065L1271.849,900.375z
	 M1301.369,1315.447l-13.753-193.367l123.892-3.043l7.263,190.325L1301.369,1315.447z M1420.756,660.415h139.494l3.451,213.228
	h-134.809L1420.756,660.415z M1429.913,900.375h134.22l3.044,188.097l-129.965,3.193L1429.913,900.375z M1445.466,1307.977
	l-7.235-189.597l129.379-3.178l3.013,186.287L1445.466,1307.977z M1727.142,1293.374l-129.808,6.73l-3.002-185.559l137.744-3.384
	L1727.142,1293.374z M1732.801,1084.403l-138.901,3.412l-3.033-187.441h146.917L1732.801,1084.403z M1738.509,873.643h-148.074
	l-3.449-213.228h157.297L1738.509,873.643z M1862.806,1233.952c-1.774,29.958-28.625,53.872-62.457,55.626l-44.953,2.33
	l4.914-181.441l109.964-2.701L1862.806,1233.952z M1871.86,1080.988l-110.826,2.722L1766,900.375h116.551L1871.86,1080.988z
	 M1884.133,873.643h-117.41l5.773-213.228h124.259L1884.133,873.643z"/>
<path style="fill:#8A333A;" d="M369.097,293.815l7.863-25.551l4.75-15.439c0,0-59.182-21.02-118.571-36.504
	c-31.395-8.186-61.03,3.216-70.477,30.967c-21.846,64.174,28.476,88.592,28.476,88.592l122.605,40.341l6.915-22.476l7.878-25.601
	L369.097,293.815z"/>
</svg>
